<svg xmlns="http://www.w3.org/2000/svg" viewBox="0 0 512 512">
  <!-- 百度熊掌 -->
  <path fill="#2932E1" d="M 359.84 392.784 l 0 -44.992 c 0 -12.288 -9.984 -22.272 -22.272 -22.272 s -22.272 9.984 -22.272 22.272 l 0 44.992 c 0 12.288 9.984 22.272 22.272 22.272 s 22.272 -9.984 22.272 -22.272 Z M 442.752 278.656 c 14.592 0 26.432 -11.84 26.432 -26.432 c 0 -14.592 -11.84 -26.432 -26.432 -26.432 c -14.592 0 -26.432 11.84 -26.432 26.432 c 0 14.592 11.84 26.432 26.432 26.432 Z M 336.768 255.104 c 15.104 0 27.328 -12.224 27.328 -27.328 c 0 -15.104 -12.224 -27.328 -27.328 -27.328 c -15.104 0 -27.328 12.224 -27.328 27.328 c 0 15.104 12.224 27.328 27.328 27.328 Z M 255.616 347.904 c -14.592 0 -26.432 11.84 -26.432 26.432 c 0 14.592 11.84 26.432 26.432 26.432 c 14.592 0 26.432 -11.84 26.432 -26.432 c 0 -14.592 -11.84 -26.432 -26.432 -26.432 Z M 388.288 243.136 c 12.288 0 22.272 -9.984 22.272 -22.272 c 0 -12.288 -9.984 -22.272 -22.272 -22.272 c -12.288 0 -22.272 9.984 -22.272 22.272 c 0 12.288 9.984 22.272 22.272 22.272 Z M 151.808 440.96 c 15.616 0 28.288 -12.672 28.288 -28.288 c 0 -15.616 -12.672 -28.288 -28.288 -28.288 c -15.616 0 -28.288 12.672 -28.288 28.288 c 0 15.616 12.672 28.288 28.288 28.288 Z M 193.28 296.192 c -12.288 0 -22.272 9.984 -22.272 22.272 c 0 12.288 9.984 22.272 22.272 22.272 c 12.288 0 22.272 -9.984 22.272 -22.272 c 0 -12.288 -9.984 -22.272 -22.272 -22.272 Z M 112.896 332.928 c -14.592 0 -26.432 11.84 -26.432 26.432 c 0 14.592 11.84 26.432 26.432 26.432 c 14.592 0 26.432 -11.84 26.432 -26.432 c 0 -14.592 -11.84 -26.432 -26.432 -26.432 Z M 255.616 251.904 c 12.8 0 23.168 -10.368 23.168 -23.168 c 0 -12.8 -10.368 -23.168 -23.168 -23.168 c -12.8 0 -23.168 10.368 -23.168 23.168 c 0 12.8 10.368 23.168 23.168 23.168 Z M 326.208 407.168 c -11.264 0 -20.416 9.152 -20.416 20.416 c 0 11.264 9.152 20.416 20.416 20.416 c 11.264 0 20.416 -9.152 20.416 -20.416 c 0 -11.264 -9.152 -20.416 -20.416 -20.416 Z"/>
  <text x="256" y="460" text-anchor="middle" font-family="Arial, sans-serif" font-size="28" font-weight="bold" fill="#2932E1">百度</text>
</svg>
